<svg xmlns="http://www.w3.org/2000/svg" xmlns:xlink="http://www.w3.org/1999/xlink" width="500" zoomAndPan="magnify" viewBox="0 0 375 374.999991" height="500" preserveAspectRatio="xMidYMid meet" version="1.0"><path fill="#025492" d="M 353.492188 143.277344 L 350.160156 93.902344 L 308.964844 66.035156 L 281.402344 25.140625 L 232.027344 21.808594 L 187.5 0 L 143.277344 21.808594 L 93.902344 25.140625 L 66.335938 66.035156 L 25.140625 93.902344 L 21.808594 143.277344 L 0 187.5 L 21.808594 232.027344 L 25.140625 281.402344 L 66.035156 308.964844 L 93.597656 349.859375 L 142.972656 353.191406 L 187.5 375 L 232.027344 353.191406 L 281.402344 349.859375 L 308.964844 308.964844 L 349.859375 281.402344 L 353.191406 232.027344 L 375 187.5 Z M 187.5 304.121094 L 159.632812 287.15625 L 187.5 270.195312 L 215.367188 287.15625 Z M 226.878906 231.117188 L 235.664062 278.070312 L 224.757812 281.703125 L 192.042969 261.710938 L 192.042969 246.566406 L 206.886719 231.722656 L 212.035156 187.195312 L 242.933594 191.742188 L 261.710938 155.089844 L 203.554688 178.109375 L 197.800781 231.722656 L 177.503906 231.722656 L 171.75 178.109375 L 113.589844 155.089844 L 132.371094 191.742188 L 163.265625 187.195312 L 168.113281 232.027344 L 182.957031 246.871094 L 182.957031 262.015625 L 150.242188 282.007812 L 139.335938 278.371094 L 148.121094 231.421875 L 79.058594 165.691406 L 103.898438 123.285156 L 151.152344 123.285156 L 187.804688 146.910156 L 224.152344 123.285156 L 271.40625 123.285156 L 296.242188 165.691406 Z M 226.878906 231.117188 " fill-opacity="1" fill-rule="nonzero"/></svg>