<?xml version="1.0" encoding="UTF-8"?><svg xmlns="http://www.w3.org/2000/svg" xmlns:xlink="http://www.w3.org/1999/xlink" width="375pt" zoomAndPan="magnify" viewBox="0 0 375 374.999991" height="374.999991pt" preserveAspectRatio="xMidYMid meet" version="1.2"><defs><clipPath xml:id="clip1" id="clip1"><path d="M 24 97 L 351.585938 97 L 351.585938 257 L 24 257 Z M 24 97 "/></clipPath></defs><g xml:id="surface1" id="surface1"><rect x="0" width="375" y="0" height="374.999991" style="fill:rgb(100%,100%,100%);fill-opacity:1;stroke:none;"/><rect x="0" width="375" y="0" height="374.999991" style="fill:rgb(100%,100%,100%);fill-opacity:1;stroke:none;"/><rect x="0" width="375" y="0" height="374.999991" style="fill:rgb(100%,100%,100%);fill-opacity:1;stroke:none;"/><path style=" stroke:none;fill-rule:nonzero;fill:rgb(20.388794%,41.569519%,68.629456%);fill-opacity:1;" d="M 188.605469 0 C 185.558594 0 182.507812 0.0742188 179.460938 0.226562 C 176.414062 0.375 173.375 0.601562 170.339844 0.902344 C 167.304688 1.203125 164.277344 1.578125 161.261719 2.03125 C 158.242188 2.480469 155.238281 3.003906 152.246094 3.601562 C 149.253906 4.203125 146.28125 4.875 143.320312 5.617188 C 140.363281 6.363281 137.425781 7.183594 134.503906 8.074219 C 131.585938 8.964844 128.691406 9.925781 125.820312 10.960938 C 122.949219 11.996094 120.101562 13.097656 117.285156 14.273438 C 114.464844 15.445312 111.679688 16.691406 108.921875 18.003906 C 106.164062 19.3125 103.441406 20.691406 100.75 22.140625 C 98.0625 23.585938 95.40625 25.097656 92.792969 26.675781 C 90.175781 28.253906 87.597656 29.894531 85.0625 31.597656 C 82.527344 33.304688 80.035156 35.070312 77.582031 36.898438 C 75.132812 38.726562 72.730469 40.613281 70.371094 42.558594 C 68.015625 44.507812 65.707031 46.511719 63.445312 48.570312 C 61.183594 50.632812 58.976562 52.746094 56.820312 54.917969 C 54.664062 57.085938 52.5625 59.308594 50.511719 61.582031 C 48.464844 63.855469 46.472656 66.179688 44.539062 68.550781 C 42.601562 70.921875 40.726562 73.339844 38.910156 75.804688 C 37.09375 78.269531 35.335938 80.777344 33.640625 83.332031 C 31.949219 85.882812 30.316406 88.472656 28.746094 91.105469 C 27.179688 93.738281 25.675781 96.40625 24.238281 99.113281 C 22.800781 101.820312 21.429688 104.558594 20.125 107.332031 C 18.820312 110.105469 17.585938 112.910156 16.417969 115.746094 C 15.25 118.582031 14.15625 121.445312 13.125 124.332031 C 12.097656 127.222656 11.144531 130.136719 10.257812 133.070312 C 9.371094 136.007812 8.558594 138.964844 7.816406 141.941406 C 7.078125 144.917969 6.410156 147.910156 5.8125 150.921875 C 5.21875 153.929688 4.695312 156.953125 4.25 159.988281 C 3.800781 163.023438 3.429688 166.066406 3.128906 169.121094 C 2.832031 172.175781 2.605469 175.234375 2.457031 178.300781 C 2.308594 181.363281 2.230469 184.429688 2.230469 187.5 C 2.230469 190.570312 2.308594 193.636719 2.457031 196.699219 C 2.605469 199.765625 2.832031 202.824219 3.128906 205.878906 C 3.429688 208.933594 3.800781 211.976562 4.25 215.011719 C 4.695312 218.046875 5.21875 221.070312 5.8125 224.078125 C 6.410156 227.089844 7.078125 230.082031 7.816406 233.058594 C 8.558594 236.035156 9.371094 238.992188 10.257812 241.929688 C 11.144531 244.863281 12.097656 247.777344 13.125 250.667969 C 14.15625 253.554688 15.25 256.417969 16.417969 259.253906 C 17.585938 262.089844 18.820312 264.890625 20.125 267.667969 C 21.429688 270.441406 22.800781 273.179688 24.238281 275.886719 C 25.675781 278.59375 27.179688 281.261719 28.746094 283.894531 C 30.316406 286.527344 31.949219 289.117188 33.640625 291.667969 C 35.335938 294.222656 37.09375 296.730469 38.910156 299.195312 C 40.726562 301.660156 42.601562 304.078125 44.539062 306.449219 C 46.472656 308.820312 48.464844 311.144531 50.511719 313.417969 C 52.5625 315.691406 54.664062 317.914062 56.820312 320.082031 C 58.976562 322.253906 61.183594 324.367188 63.445312 326.429688 C 65.707031 328.488281 68.015625 330.492188 70.371094 332.4375 C 72.730469 334.386719 75.132812 336.273438 77.582031 338.101562 C 80.035156 339.929688 82.527344 341.695312 85.0625 343.402344 C 87.597656 345.105469 90.175781 346.746094 92.792969 348.324219 C 95.40625 349.902344 98.0625 351.414062 100.75 352.859375 C 103.441406 354.308594 106.164062 355.6875 108.921875 356.996094 C 111.679688 358.308594 114.464844 359.554688 117.285156 360.726562 C 120.101562 361.902344 122.949219 363.003906 125.820312 364.039062 C 128.691406 365.074219 131.585938 366.035156 134.503906 366.925781 C 137.425781 367.816406 140.363281 368.636719 143.320312 369.378906 C 146.28125 370.125 149.253906 370.796875 152.246094 371.398438 C 155.238281 371.996094 158.242188 372.519531 161.261719 372.96875 C 164.277344 373.421875 167.304688 373.796875 170.339844 374.097656 C 173.375 374.398438 176.414062 374.625 179.460938 374.773438 C 182.507812 374.925781 185.558594 375 188.605469 375 C 191.65625 375 194.707031 374.925781 197.753906 374.773438 C 200.796875 374.625 203.839844 374.398438 206.875 374.097656 C 209.910156 373.796875 212.9375 373.421875 215.953125 372.96875 C 218.972656 372.519531 221.976562 371.996094 224.96875 371.398438 C 227.957031 370.796875 230.933594 370.125 233.890625 369.378906 C 236.851562 368.636719 239.789062 367.816406 242.707031 366.925781 C 245.628906 366.035156 248.523438 365.074219 251.394531 364.039062 C 254.265625 363.003906 257.113281 361.902344 259.929688 360.726562 C 262.746094 359.554688 265.535156 358.308594 268.292969 356.996094 C 271.050781 355.6875 273.773438 354.308594 276.464844 352.859375 C 279.152344 351.414062 281.808594 349.902344 284.421875 348.324219 C 287.039062 346.746094 289.617188 345.105469 292.152344 343.402344 C 294.6875 341.695312 297.179688 339.929688 299.628906 338.101562 C 302.082031 336.273438 304.484375 334.386719 306.84375 332.4375 C 309.199219 330.492188 311.507812 328.488281 313.769531 326.429688 C 316.027344 324.367188 318.238281 322.253906 320.394531 320.082031 C 322.550781 317.914062 324.652344 315.691406 326.703125 313.417969 C 328.75 311.144531 330.742188 308.820312 332.675781 306.449219 C 334.613281 304.078125 336.488281 301.660156 338.304688 299.195312 C 340.121094 296.730469 341.878906 294.222656 343.570312 291.667969 C 345.265625 289.117188 346.898438 286.527344 348.464844 283.894531 C 350.035156 281.261719 351.539062 278.59375 352.976562 275.886719 C 354.414062 273.179688 355.785156 270.441406 357.089844 267.667969 C 358.390625 264.890625 359.628906 262.089844 360.796875 259.253906 C 361.960938 256.417969 363.058594 253.554688 364.085938 250.667969 C 365.113281 247.777344 366.070312 244.863281 366.957031 241.929688 C 367.84375 238.992188 368.65625 236.035156 369.398438 233.058594 C 370.136719 230.082031 370.804688 227.089844 371.402344 224.078125 C 371.996094 221.070312 372.515625 218.046875 372.964844 215.011719 C 373.414062 211.976562 373.785156 208.933594 374.085938 205.878906 C 374.382812 202.824219 374.609375 199.765625 374.757812 196.699219 C 374.90625 193.636719 374.980469 190.570312 374.980469 187.5 C 374.980469 184.429688 374.90625 181.363281 374.757812 178.300781 C 374.609375 175.234375 374.382812 172.175781 374.085938 169.121094 C 373.785156 166.066406 373.414062 163.023438 372.964844 159.988281 C 372.515625 156.953125 371.996094 153.929688 371.402344 150.921875 C 370.804688 147.910156 370.136719 144.917969 369.398438 141.941406 C 368.65625 138.964844 367.84375 136.007812 366.957031 133.070312 C 366.070312 130.136719 365.113281 127.222656 364.085938 124.332031 C 363.058594 121.445312 361.960938 118.582031 360.796875 115.746094 C 359.628906 112.910156 358.390625 110.105469 357.089844 107.332031 C 355.785156 104.558594 354.414062 101.820312 352.976562 99.113281 C 351.539062 96.40625 350.035156 93.738281 348.464844 91.105469 C 346.898438 88.472656 345.265625 85.882812 343.570312 83.332031 C 341.878906 80.777344 340.121094 78.269531 338.304688 75.804688 C 336.488281 73.339844 334.613281 70.921875 332.675781 68.550781 C 330.742188 66.179688 328.75 63.855469 326.703125 61.582031 C 324.652344 59.308594 322.550781 57.085938 320.394531 54.917969 C 318.238281 52.746094 316.027344 50.632812 313.769531 48.570312 C 311.507812 46.511719 309.199219 44.507812 306.84375 42.558594 C 304.484375 40.613281 302.082031 38.726562 299.628906 36.898438 C 297.179688 35.070312 294.6875 33.304688 292.152344 31.597656 C 289.617188 29.894531 287.039062 28.253906 284.421875 26.675781 C 281.808594 25.097656 279.152344 23.585938 276.464844 22.140625 C 273.773438 20.691406 271.050781 19.3125 268.292969 18.003906 C 265.535156 16.691406 262.746094 15.445312 259.929688 14.273438 C 257.113281 13.097656 254.265625 11.996094 251.394531 10.960938 C 248.523438 9.925781 245.628906 8.964844 242.707031 8.074219 C 239.789062 7.183594 236.851562 6.363281 233.890625 5.617188 C 230.933594 4.875 227.957031 4.203125 224.96875 3.601562 C 221.976562 3.003906 218.972656 2.480469 215.953125 2.03125 C 212.9375 1.578125 209.910156 1.203125 206.875 0.902344 C 203.839844 0.601562 200.796875 0.375 197.753906 0.226562 C 194.707031 0.0742188 191.65625 0 188.605469 0 Z M 188.605469 0 "/><g clip-rule="nonzero" clip-path="url(#clip1)"><path style=" stroke:none;fill-rule:nonzero;fill:rgb(96.078491%,94.509888%,92.158508%);fill-opacity:1;" d="M 350.976562 108.65625 C 349.40625 103.445312 341.535156 96.761719 335.332031 97.863281 C 321.835938 100.242188 308.558594 103.476562 295.328125 106.984375 C 277.066406 111.832031 260.070312 119.996094 242.304688 126.105469 C 240.867188 126.597656 240.039062 127.105469 240.707031 128.789062 C 243.03125 134.75 249.132812 137.707031 255.148438 135.734375 C 256.527344 135.285156 257.863281 134.664062 259.230469 134.167969 C 270.066406 130.28125 280.511719 125.363281 291.476562 121.824219 C 291.957031 121.433594 292.464844 121.214844 293.003906 121.054688 C 292.492188 121.304688 291.972656 121.535156 291.476562 121.824219 C 293.335938 122.21875 295.066406 121.460938 296.808594 121.085938 C 302.980469 119.722656 309.140625 118.257812 315.285156 116.792969 C 316.332031 116.546875 317.378906 115.894531 317.972656 117.414062 C 290.066406 144.945312 262.542969 172.855469 235.492188 201.226562 C 229.4375 207.582031 223.132812 213.730469 216.726562 219.765625 C 208.589844 227.425781 200.078125 234.675781 190.738281 240.855469 C 186.003906 243.988281 181.109375 246.847656 175.71875 248.734375 C 169.53125 250.894531 167.65625 250.386719 163.328125 245.382812 C 159.171875 240.582031 156.820312 234.820312 154.886719 228.875 C 151.007812 216.894531 150.050781 204.535156 150.226562 192.015625 C 150.457031 175.132812 153.273438 158.523438 155.511719 141.84375 C 156.414062 135.140625 157.503906 128.453125 157.226562 121.636719 C 157.066406 117.605469 155.339844 114.558594 151.882812 112.65625 C 144.804688 108.785156 137.660156 106.839844 130.5 112.601562 C 128.929688 113.863281 127.199219 114.921875 125.574219 116.09375 C 113.792969 124.550781 102.972656 134.167969 92.601562 144.265625 C 82.359375 154.230469 72.84375 164.847656 64.636719 176.597656 C 64.011719 176.773438 63.664062 177.148438 63.691406 177.816406 L 63.632812 177.902344 C 62.777344 178.265625 62.355469 178.933594 62.253906 179.832031 C 61.542969 180.617188 60.714844 181.3125 60.148438 182.183594 C 54.234375 191.203125 48.351562 200.253906 42.5 209.308594 C 42.035156 210.03125 41.773438 210.902344 41.4375 211.714844 C 40.8125 211.890625 40.550781 212.308594 40.640625 212.949219 C 40.320312 213.09375 40.203125 213.324219 40.289062 213.660156 C 39.59375 213.917969 39.359375 214.457031 39.40625 215.152344 L 39.390625 215.183594 C 38.535156 215.644531 38.199219 216.386719 38.199219 217.3125 C 32.957031 225.496094 29.28125 234.429688 25.824219 243.453125 C 22.730469 251.503906 23.382812 252.632812 31.632812 254.535156 C 34.785156 255.261719 36.152344 254.636719 37.007812 251.574219 C 39.230469 243.597656 42.964844 236.273438 46.640625 228.933594 C 64.535156 193.25 89.914062 163.398438 119.167969 136.589844 C 125.515625 130.773438 132.257812 125.394531 139.546875 120.78125 C 140.855469 119.953125 142.046875 118.648438 143.949219 118.980469 C 144.238281 122.882812 143.71875 126.699219 142.992188 130.46875 C 141.101562 140.335938 139.199219 150.199219 137.835938 160.164062 C 135.40625 177.832031 134.347656 195.511719 137.441406 213.195312 C 139.257812 223.523438 142.234375 233.488281 148.335938 242.21875 C 156.3125 253.605469 172.988281 259.566406 185.753906 255.667969 C 186.730469 255.839844 187.601562 255.738281 188.210938 254.824219 L 188.691406 254.855469 L 189.066406 254.578125 C 190.011719 254.738281 190.753906 254.433594 191.277344 253.621094 L 191.304688 253.605469 C 192.25 253.679688 193.046875 253.460938 193.542969 252.5625 C 194.472656 252.589844 195.285156 252.375 195.734375 251.460938 C 202.589844 248.890625 208.214844 244.324219 214.167969 240.261719 C 220.152344 236.808594 225.207031 232.269531 229.753906 227.105469 C 235.363281 221.867188 241.160156 216.820312 246.535156 211.367188 C 266.78125 190.769531 286.886719 170.042969 307.035156 149.34375 C 307.398438 148.964844 307.660156 148.472656 307.964844 148.023438 C 308.34375 147.703125 308.691406 147.355469 308.996094 146.976562 L 309.039062 146.933594 C 311.640625 145.148438 313.730469 142.859375 315.679688 140.40625 C 316.347656 140.335938 316.722656 139.984375 316.765625 139.304688 C 318.699219 138.332031 320.050781 136.765625 321.226562 135.011719 C 321.574219 135.070312 321.878906 134.96875 322.128906 134.71875 C 322.636719 134.792969 323.144531 134.867188 323.652344 134.921875 C 322.984375 137.390625 322.34375 139.855469 321.632812 142.308594 C 317.84375 155.316406 315.082031 168.53125 314.515625 182.109375 C 314.269531 187.910156 317.683594 192.683594 323.304688 195.105469 C 323.332031 194.089844 323.347656 193.074219 323.375 192.058594 C 323.550781 192.089844 323.726562 192.117188 323.914062 192.148438 C 324.074219 192.175781 324.25 192.191406 324.40625 192.234375 C 324.453125 192.566406 324.480469 192.929688 324.523438 193.277344 C 324.625 194.019531 324.84375 194.773438 325.789062 195.453125 C 327.488281 193.394531 325.949219 190.464844 327.617188 188.5625 C 327.707031 186.824219 327.792969 185.097656 327.878906 183.355469 C 329.042969 181.644531 328.984375 179.703125 328.925781 177.773438 L 329.203125 177.496094 L 329.054688 177.132812 C 330.160156 175.699219 330.101562 174.03125 330.085938 172.347656 C 331.164062 171.042969 331.207031 169.488281 331.148438 167.921875 C 332.238281 166.660156 332.339844 165.136719 332.324219 163.585938 C 333.328125 162.644531 333.386719 161.4375 333.285156 160.191406 L 333.574219 159.929688 L 333.472656 159.554688 C 334.5625 158.523438 334.519531 157.175781 334.546875 155.839844 C 334.765625 155.550781 335.070312 155.289062 335.171875 154.96875 C 339.601562 140.320312 342.421875 125.101562 350.613281 111.789062 C 351.136719 110.886719 351.308594 109.800781 350.976562 108.65625 Z M 34.945312 231.660156 Z M 41.496094 218.589844 C 41.511719 218.5625 41.511719 218.546875 41.527344 218.519531 C 41.511719 218.53125 41.511719 218.53125 41.496094 218.546875 C 41.511719 218.53125 41.527344 218.519531 41.527344 218.488281 C 41.527344 218.503906 41.527344 218.503906 41.511719 218.519531 C 41.527344 218.503906 41.539062 218.488281 41.539062 218.472656 C 41.539062 218.460938 41.539062 218.460938 41.539062 218.445312 C 41.570312 218.429688 41.570312 218.417969 41.597656 218.402344 C 41.570312 218.472656 41.539062 218.53125 41.496094 218.589844 Z M 42.628906 216.3125 C 42.628906 216.3125 42.628906 216.296875 42.628906 216.3125 C 42.628906 216.3125 42.613281 216.3125 42.613281 216.3125 C 42.628906 216.296875 42.628906 216.296875 42.628906 216.285156 C 42.644531 216.296875 42.628906 216.296875 42.628906 216.3125 C 42.644531 216.296875 42.644531 216.296875 42.628906 216.3125 C 42.644531 216.296875 42.644531 216.296875 42.628906 216.3125 Z M 42.660156 216.285156 C 42.660156 216.285156 42.660156 216.269531 42.660156 216.269531 C 42.671875 216.269531 42.671875 216.253906 42.6875 216.242188 C 42.671875 216.253906 42.660156 216.269531 42.660156 216.285156 Z M 43.761719 214.078125 C 43.761719 214.078125 43.761719 214.066406 43.761719 214.078125 C 43.761719 214.066406 43.75 214.078125 43.75 214.078125 C 43.734375 214.078125 43.75 214.078125 43.761719 214.078125 L 43.75 214.078125 C 43.75 214.09375 43.75 214.09375 43.75 214.109375 C 43.734375 214.121094 43.734375 214.121094 43.71875 214.136719 C 43.734375 214.109375 43.761719 214.078125 43.777344 214.066406 C 43.761719 214.050781 43.761719 214.066406 43.761719 214.078125 C 43.761719 214.066406 43.777344 214.066406 43.777344 214.050781 C 43.761719 214.066406 43.761719 214.066406 43.761719 214.078125 Z M 45.070312 211.554688 C 44.984375 211.65625 44.925781 211.773438 44.851562 211.875 C 44.851562 211.875 44.851562 211.859375 44.851562 211.859375 C 44.851562 211.859375 44.851562 211.875 44.835938 211.875 C 44.835938 211.875 44.835938 211.890625 44.835938 211.890625 C 44.835938 211.890625 44.835938 211.902344 44.824219 211.902344 C 44.808594 211.917969 44.792969 211.933594 44.78125 211.933594 C 44.792969 211.902344 44.824219 211.859375 44.835938 211.832031 C 44.835938 211.84375 44.835938 211.84375 44.835938 211.859375 C 44.910156 211.742188 44.984375 211.640625 45.070312 211.527344 C 45.070312 211.539062 45.070312 211.539062 45.070312 211.554688 Z M 194.542969 249.253906 C 194.542969 249.253906 194.53125 249.269531 194.53125 249.269531 C 194.542969 249.269531 194.542969 249.269531 194.558594 249.269531 C 194.558594 249.269531 194.542969 249.253906 194.542969 249.253906 C 194.542969 249.253906 194.558594 249.269531 194.558594 249.269531 C 194.558594 249.253906 194.574219 249.253906 194.574219 249.253906 C 194.558594 249.242188 194.558594 249.242188 194.542969 249.253906 C 194.574219 249.242188 194.585938 249.226562 194.601562 249.210938 C 194.585938 249.226562 194.585938 249.242188 194.574219 249.253906 C 194.585938 249.253906 194.585938 249.253906 194.601562 249.253906 C 194.558594 249.285156 194.53125 249.3125 194.484375 249.328125 C 194.5 249.296875 194.515625 249.296875 194.53125 249.269531 C 194.53125 249.269531 194.515625 249.269531 194.515625 249.269531 C 194.53125 249.253906 194.53125 249.253906 194.542969 249.253906 Z M 192.394531 250.3125 C 192.378906 250.328125 192.378906 250.328125 192.367188 250.34375 C 192.367188 250.34375 192.367188 250.34375 192.378906 250.34375 C 192.367188 250.34375 192.367188 250.355469 192.351562 250.355469 C 192.351562 250.355469 192.367188 250.34375 192.367188 250.34375 C 192.351562 250.34375 192.351562 250.34375 192.335938 250.34375 C 192.367188 250.328125 192.378906 250.328125 192.394531 250.3125 Z M 192.335938 250.34375 C 192.335938 250.355469 192.320312 250.355469 192.320312 250.355469 C 192.335938 250.355469 192.335938 250.355469 192.351562 250.355469 C 192.335938 250.371094 192.308594 250.386719 192.292969 250.402344 C 192.308594 250.386719 192.320312 250.371094 192.320312 250.355469 C 192.320312 250.355469 192.308594 250.355469 192.308594 250.355469 C 192.320312 250.355469 192.335938 250.355469 192.335938 250.34375 Z M 192.335938 250.34375 "/></g><path style=" stroke:none;fill-rule:nonzero;fill:rgb(96.078491%,94.509888%,92.158508%);fill-opacity:1;" d="M 308.953125 147.019531 C 308.605469 147.371094 308.253906 147.71875 307.921875 148.066406 C 308.546875 147.992188 308.894531 147.644531 308.953125 147.019531 Z M 308.953125 147.019531 "/></g></svg>